<svg width="18" height="16" viewBox="0 0 18 16" fill="none" xmlns="http://www.w3.org/2000/svg">
<path d="M16.6154 0H1.38462C0.61875 0 0 0.55 0 1.23077V14.7692C0 15.45 0.61875 16 1.38462 16H16.6154C17.3813 16 18 15.45 18 14.7692V1.23077C18 0.55 17.3813 0 16.6154 0ZM16.6154 14.7692H1.38462V1.23077H16.6154V14.7692Z" fill="#989FB8"/>
<path d="M3.46146 11.6927H14.5384C14.9192 11.6965 15.2307 11.4196 15.235 11.0812C15.235 10.9158 15.1615 10.7581 15.0317 10.6389L12.2624 8.17731C11.9942 7.93885 11.5571 7.93885 11.2845 8.17731L10.3845 8.97731L8.10858 6.95424C7.84031 6.71578 7.40329 6.71578 7.13069 6.95424L2.97685 10.6465C2.70858 10.8889 2.7129 11.2773 2.9855 11.5158C3.11531 11.6273 3.28406 11.6889 3.46146 11.6927Z" fill="#989FB8"/>
<path d="M12.4615 6.76916C13.2262 6.76916 13.8461 6.21812 13.8461 5.53839C13.8461 4.85865 13.2262 4.30762 12.4615 4.30762C11.6968 4.30762 11.0769 4.85865 11.0769 5.53839C11.0769 6.21812 11.6968 6.76916 12.4615 6.76916Z" fill="#989FB8"/>
</svg>
