<svg xmlns="http://www.w3.org/2000/svg" width="21.892" height="27.995" viewBox="0 0 21.892 27.995">
    <defs>
        <style>
            .cls-3{fill:#4d3825}
        </style>
    </defs>
    <g id="그룹_1665" transform="translate(-406.639 -273.769)">
        <g id="background" transform="translate(411.484 280.34)">
            <path id="패스_40" fill="#f9d6c2" d="M466.851 433.69l.121 3.157s.511 3.6 2.773 4.843l-1.234 2.322-.191.68 4.632 1.958 4.441-2.638-1.233-2.234a8.337 8.337 0 0 0 2.772-6.66L471 429.255z" transform="translate(-466.851 -429.255)"/>
        </g>
        <g id="Layer_1" transform="translate(406.639 273.769)">
            <path id="패스_41" fill="#fff" d="M350.822 850.461l-5.669-3.522a.436.436 0 0 0-.415-.024l-4.034 1.9a.959.959 0 0 1-.814 0l-4.034-1.9a.436.436 0 0 0-.415.024l-5.669 3.522a.89.89 0 0 0-.421.756v1.84a.524.524 0 0 0 .524.524h20.844a.524.524 0 0 0 .524-.524v-1.84a.89.89 0 0 0-.421-.756z" transform="translate(-329.35 -825.586)"/>
            <path id="패스_42" d="M420.743 493.993v.023z" transform="translate(-417.52 -485.14)"/>
            <path id="패스_43" d="M396.272 639.1v.2a2.041 2.041 0 0 1-1.467 1.956c-.06 1.816-.362 3.4-1.2 3.658a.047.047 0 0 0 0 .089 5.975 5.975 0 0 0 5.443-.773.056.056 0 0 0 0-.088 8.392 8.392 0 0 1-2.776-5.042z" class="cls-3" transform="translate(-391.307 -625.138)"/>
            <path id="패스_44" fill="#432102" d="M453.228 303.724a2.051 2.051 0 0 1 1.06-1.787c-.072-4.7-3.2-8.5-7.04-8.5s-6.968 3.8-7.04 8.5a2.056 2.056 0 0 1 .919 1.049 8.725 8.725 0 0 0 4.2-3.984s4.618 4.579 7.9 5.087z" transform="translate(-436.301 -291.653)"/>
            <path id="패스_45" fill="#1d3041" d="M373.5 253.243v-.034a11.442 11.442 0 0 0-2.543-7.342 7.909 7.909 0 0 0-12.568 0 11.442 11.442 0 0 0-2.543 7.342v.034a1.642 1.642 0 0 0-1.229 1.589v2.093a1.641 1.641 0 0 0 1.641 1.641h.4a1.641 1.641 0 0 0 1.641-1.641v-2.093a1.641 1.641 0 0 0-1.06-1.535v-.088c0-5 3.337-9.059 7.438-9.059s7.438 4.064 7.438 9.059v.088a1.641 1.641 0 0 0-1.06 1.535v2.093a1.641 1.641 0 0 0 1.236 1.59 3.663 3.663 0 0 1-3.2 1.559 4.421 4.421 0 0 1-1.74-.347 1.01 1.01 0 1 0-.2.778 5.233 5.233 0 0 0 1.936.362 4.912 4.912 0 0 0 2.977-.948 3.327 3.327 0 0 0 1.079-1.356 1.641 1.641 0 0 0 1.583-1.639v-2.093a1.642 1.642 0 0 0-1.226-1.588z" transform="translate(-353.725 -242.761)"/>
            <g id="그룹_26" transform="translate(14.133 13.962)">
                <path id="패스_46" d="M780.6 641.906a3.584 3.584 0 0 0 1.682-.639 2.568 2.568 0 0 0 .359-.318 2.038 2.038 0 0 1-1.014-1.761v-.2a9.493 9.493 0 0 1-1.027 2.918z" class="cls-3" transform="translate(-778.838 -638.986)"/>
                <path id="패스_47" d="M766.879 745.142q.114 0 .226-.007-.112.006-.226.007z" class="cls-3" transform="translate(-765.595 -741.395)"/>
                <path id="패스_48" d="M735.911 742.541c-.611-.185-.937-1.076-1.093-2.246a5.333 5.333 0 0 1-3.139.972 5.959 5.959 0 0 1-.627-.033 6.491 6.491 0 0 1-.582.536.056.056 0 0 0 0 .088 5.976 5.976 0 0 0 5.443.773.047.047 0 0 0-.002-.09z" class="cls-3" transform="translate(-730.448 -736.725)"/>
            </g>
        </g>
    </g>
</svg>
