<?xml version="1.0" encoding="utf-8"?>
<!-- Generator: Adobe Illustrator 24.3.0, SVG Export Plug-In . SVG Version: 6.00 Build 0)  -->
<svg version="1.1" id="레이어_1" xmlns="http://www.w3.org/2000/svg" xmlns:xlink="http://www.w3.org/1999/xlink" x="0px"
	 y="0px" viewBox="0 0 149 109" style="enable-background:new 0 0 149 109;" xml:space="preserve">
<style type="text/css">
	.st0{fill:#BB392C;}
</style>
<g>
	<g>
		<path class="st0" d="M11.6,69.7c4.1,0,6.7,0.7,8.7,2.2c2.4,1.9,3.7,5.1,3.7,8.9c0,4.8-1.9,8-5.9,10.2l7.3,17.6h-6.9l-6.1-16.2H6.4
			v16.2H0V69.7H11.6z M6.4,87.4h5c4.1,0,6.3-2.4,6.3-6.6c0-0.8-0.1-1.4-0.2-2c-0.8-2.8-2.6-4-6.1-4h-5V87.4z"/>
		<path class="st0" d="M52.5,69.7v5.1H36.7V86h12.4v5.1H36.7v12.2h16.1v5.2H30.3V69.7H52.5z"/>
		<path class="st0" d="M66.3,69.7c4.8,0,8.6,1,11.3,3c4.1,3.1,6.5,8.9,6.5,16.1c0,2.9-0.4,5.8-1.2,8.4c-1.5,4.9-4.7,8.6-8.8,10.2
			c-2,0.8-4.4,1.1-7.3,1.1h-9.2V69.7H66.3z M63.9,103.4h2.7c7,0,10.7-4.9,10.7-14.3c0-2.2-0.2-4.1-0.6-6c-1.2-5.4-4.7-8.3-10-8.3
			h-2.7V103.4z"/>
		<path class="st0" d="M108.8,69.7v5.5H100v33.4h-6.4V75.2h-8.6v-5.5H108.8z"/>
		<path class="st0" d="M120,69.7v38.8h-6.4V69.7H120z"/>
		<path class="st0" d="M148.6,69.7v5.1h-15.8V86h12.4v5.1h-12.4v12.2h16.1v5.2h-22.5V69.7H148.6z"/>
	</g>
	<path class="st0" d="M107.9,0L107.9,0L107.9,0L107.9,0l-33.5,14L40.9,0l0,0v50.4l0,0l33.5-14.1l33.5,14.1l0,0v0l0,0V0z M74.4,27.5
		L49.2,38.4V12.1L74.4,23l25.2-10.9v26.3L74.4,27.5z"/>
</g>
</svg>
