<svg width="25" height="25" viewBox="0 0 25 25" fill="none" xmlns="http://www.w3.org/2000/svg">
<path d="M23.7636 9.50294C23.7636 9.91715 23.4278 10.2529 23.0136 10.2529H15.5136C15.0994 10.2529 14.7636 9.91715 14.7636 9.50294C14.7636 9.08872 15.0994 8.75294 15.5136 8.75294H23.0136C23.4278 8.75294 23.7636 9.08872 23.7636 9.50294Z" fill="#C5C5C5"/>
<path d="M16.2636 9.50294C16.2636 9.91715 15.9278 10.2529 15.5136 10.2529C15.0994 10.2529 14.7636 9.91715 14.7636 9.50294L14.7636 2.00293C14.7636 1.58872 15.0994 1.25293 15.5136 1.25293C15.9278 1.25293 16.2636 1.58872 16.2636 2.00293V9.50294Z" fill="#C5C5C5"/>
<path d="M16.3447 9.7226C16.0518 10.0155 15.5769 10.0155 15.284 9.7226C14.9911 9.42971 14.9911 8.95484 15.284 8.66194L23.4158 0.530217C23.7087 0.237323 24.1835 0.237324 24.4764 0.530217C24.7693 0.82311 24.7693 1.29798 24.4764 1.59088L16.3447 9.7226Z" fill="#C5C5C5"/>
<path d="M1.24892 15.497C1.24892 15.0827 1.5847 14.747 1.99892 14.747H9.49892C9.91313 14.747 10.2489 15.0827 10.2489 15.497C10.2489 15.9112 9.91313 16.247 9.49892 16.247H1.99892C1.5847 16.247 1.24892 15.9112 1.24892 15.497Z" fill="#C5C5C5"/>
<path d="M8.74892 15.497C8.74892 15.0827 9.0847 14.747 9.49892 14.747C9.91313 14.747 10.2489 15.0827 10.2489 15.497V22.997C10.2489 23.4112 9.91313 23.747 9.49892 23.747C9.0847 23.747 8.74892 23.4112 8.74892 22.997V15.497Z" fill="#C5C5C5"/>
<path d="M8.6678 15.2773C8.9607 14.9844 9.43557 14.9844 9.72846 15.2773C10.0214 15.5702 10.0214 16.0451 9.72846 16.3379L1.59674 24.4697C1.30384 24.7626 0.828969 24.7626 0.536076 24.4697C0.243183 24.1768 0.243183 23.7019 0.536076 23.409L8.6678 15.2773Z" fill="#C5C5C5"/>
</svg>
