<svg width="23" height="23" viewBox="0 0 23 23" fill="none" xmlns="http://www.w3.org/2000/svg">
<path d="M14 0.75C14 0.335786 14.3358 0 14.75 0H22.25C22.6642 0 23 0.335786 23 0.75C23 1.16421 22.6642 1.5 22.25 1.5H14.75C14.3358 1.5 14 1.16421 14 0.75Z" fill="#C5C5C5"/>
<path d="M21.5 0.75C21.5 0.335786 21.8358 0 22.25 0C22.6642 0 23 0.335786 23 0.75V8.25C23 8.66421 22.6642 9 22.25 9C21.8358 9 21.5 8.66421 21.5 8.25V0.75Z" fill="#C5C5C5"/>
<path d="M21.4189 0.53033C21.7118 0.237437 22.1867 0.237437 22.4795 0.53033C22.7724 0.823223 22.7724 1.2981 22.4795 1.59099L14.3478 9.72272C14.0549 10.0156 13.5801 10.0156 13.2872 9.72272C12.9943 9.42983 12.9943 8.95495 13.2872 8.66206L21.4189 0.53033Z" fill="#C5C5C5"/>
<path d="M9.01172 22.25C9.01172 22.6642 8.67593 23 8.26172 23H0.761719C0.347505 23 0.011719 22.6642 0.011719 22.25C0.011719 21.8358 0.347505 21.5 0.761719 21.5H8.26172C8.67593 21.5 9.01172 21.8358 9.01172 22.25Z" fill="#C5C5C5"/>
<path d="M1.51172 22.25C1.51172 22.6642 1.17593 23 0.761719 23C0.347505 23 0.011719 22.6642 0.011719 22.25L0.0117188 14.75C0.0117188 14.3358 0.347505 14 0.761719 14C1.17593 14 1.51172 14.3358 1.51172 14.75V22.25Z" fill="#C5C5C5"/>
<path d="M1.59283 22.4697C1.29994 22.7626 0.825063 22.7626 0.53217 22.4697C0.239277 22.1768 0.239277 21.7019 0.53217 21.409L8.6639 13.2773C8.95679 12.9844 9.43166 12.9844 9.72456 13.2773C10.0175 13.5702 10.0175 14.045 9.72456 14.3379L1.59283 22.4697Z" fill="#C5C5C5"/>
</svg>
