<svg xmlns="http://www.w3.org/2000/svg" xmlns:xlink="http://www.w3.org/1999/xlink" width="150" height="150" viewBox="0 0 150 150">
    <defs>
        <circle id="lhms9bpeia" cx="75" cy="75" r="75"/>
    </defs>
    <g fill="none" fill-rule="evenodd">
        <g>
            <g transform="translate(-3740 -1113) translate(3740 1113)">
                <mask id="rlqwt3pc1b" fill="#fff">
                    <use xlink:href="#lhms9bpeia"/>
                </mask>
                <use fill="#0C9CFF" xlink:href="#lhms9bpeia"/>
                <g mask="url(#rlqwt3pc1b)">
                    <g>
                        <path fill="#96CBF9" d="M44.139 99.291l-7.146-3.733c-10.3 9.27-18.862 19.14-25.685 29.612-4.185 6.309-4.11 10.997.225 14.066 1.287.794 2.64 1.127 4.056.998 1.566-.129 3.197-.858 4.892-2.189 1.588-1.309 3.037-2.961 4.345-4.957 3.734-5.536 10.172-16.802 19.313-33.797" transform="translate(22.917 16.667)"/>
                        <path stroke="#000" stroke-linecap="round" stroke-linejoin="round" stroke-width="1.082" d="M36.993 95.558l7.146 3.733c-9.141 16.995-15.579 28.261-19.312 33.797-1.31 1.996-2.758 3.648-4.346 4.957-1.695 1.33-3.326 2.06-4.892 2.189-1.417.129-2.768-.204-4.056-.998-4.335-3.069-4.41-7.757-.225-14.066 6.824-10.472 15.385-20.342 25.685-29.612z" transform="translate(22.917 16.667)"/>
                        <path fill="#96CBF9" d="M49.353 95.783v-6.985H38.667c-4.117 6.808-7.444 13.138-9.978 18.991-1.846 4.184-3.165 8.036-3.96 11.555-2.445 10.772 0 18.39 7.34 22.853l7.274-3.572 3.83 7.338c1.91.065 3.477.118 4.7.161H49.449c1.189-.027 2.358-.114 3.51-.257l3.926-7.468 8.208 3.798c.47-.285.92-.586 1.352-.9 6.28-4.553 8.277-11.87 5.987-21.953-.794-3.519-2.114-7.37-3.96-11.555L55.534 95.783h-6.18z" transform="translate(22.917 16.667)"/>
                        <path stroke="#000" stroke-linecap="round" stroke-linejoin="round" stroke-width="1.082" d="M65.801 158.71l.644-17.414m0 0c6.281-4.552 8.276-11.869 5.987-21.952-.795-3.519-2.114-7.37-3.96-11.555m-25.299 38.174c1.91.065 3.477.118 4.7.161h1.577M38.667 88.798c-4.117 6.808-7.444 13.138-9.978 18.991-1.846 4.184-3.165 8.036-3.959 11.555-2.446 10.772 0 18.39 7.339 22.853" transform="translate(22.917 16.667)"/>
                        <path fill="#0C9CFF" d="M50.898 122.37c-.021-1.288-.279-2.522-.772-3.702-.493-1.202-1.18-2.22-2.06-3.058-1.867-1.888-4.12-2.821-6.76-2.8-2.617 0-4.849.955-6.695 2.865-.88.88-1.555 1.91-2.027 3.09-.494 1.18-.74 2.425-.74 3.734v.547l5.181-.032v-.548c0-1.201.419-2.242 1.256-3.122.88-.858 1.899-1.287 3.058-1.287 1.201 0 2.231.418 3.09 1.255.88.837 1.32 1.878 1.32 3.122v.515h5.15v-.58z" transform="translate(22.917 16.667)"/>
                        <path fill="#96CBF9" d="M89.459 125.17c-2.005-3.078-4.162-6.103-6.47-9.077-5.537-7.145-11.943-13.99-19.216-20.535l-7.145 3.733c3.452 6.418 6.52 12.019 9.205 16.802 4.415 7.884 7.783 13.55 10.107 16.995 1.309 1.996 2.757 3.648 4.346 4.957 1.695 1.33 3.326 2.06 4.892 2.189 1.416.129 2.768-.204 4.056-.998 4.334-3.069 4.41-7.757.225-14.066" transform="translate(22.917 16.667)"/>
                        <path stroke="#000" stroke-linecap="round" stroke-linejoin="round" stroke-width="1.082" d="M65.833 116.093c4.415 7.885 7.783 13.55 10.107 16.995 1.309 1.996 2.757 3.648 4.346 4.957 1.695 1.33 3.326 2.06 4.892 2.189 1.416.129 2.768-.204 4.056-.998 4.334-3.069 4.41-7.757.225-14.066-2.005-3.078-4.162-6.103-6.47-9.077-5.537-7.145-11.943-13.99-19.216-20.535" transform="translate(22.917 16.667)"/>
                        <path fill="#FFF" d="M40.15 11.376c-.867-3.504-2.463-6.417-4.788-8.738-3.028-2.702-5.789-2.825-8.285-.369-.432.393-.852.887-1.26 1.482-2.63 4.085-4.185 9.12-4.663 15.11-.026.296-.053.593-.078.89l-.004.144-.017.72c-.026.296-.042.588-.05.876-.014.624-.025 1.257-.03 1.9.648.17 1.302.324 1.961.465l1.405.263c.201.024.407.058.617.1l.144.005c3.818.503 7.676.335 11.574-.504.048.002.091-.007.13-.025l.26-.052c1.217-.288 2.44-.638 3.668-1.05.119-.957.199-1.896.24-2.817-.017-.087-.016-.183.006-.288l.007-.287c.065-2.735-.214-5.343-.836-7.825" transform="translate(22.917 16.667)"/>
                        <path stroke="#000" stroke-linecap="round" stroke-linejoin="round" stroke-width="1.082" d="M40.988 19.783c-.017-.087-.015-.183.007-.288l.007-.288c.065-2.734-.215-5.341-.837-7.824-.867-3.504-2.464-6.417-4.789-8.738-3.027-2.702-5.789-2.825-8.285-.369-.431.393-.851.887-1.259 1.482-2.63 4.085-4.185 9.12-4.664 15.109l-.078.89-.003.144-.018.72" transform="translate(22.917 16.667)"/>
                        <path fill="#FFF" d="M95.639 28.769c-.322-.43-.655-.848-.998-1.256-7.146-8.669-16.104-14.248-26.877-16.737-3.39-.751-7.08-1.299-11.072-1.642-.88-.085-1.738-.14-2.575-.16-1.931-.065-3.84-.044-5.73.064-.106 0-.214.021-.321.064-.129-.021-.247-.021-.354 0-.107.021-.215.032-.322.032-7.532.6-14.946 2.64-22.242 6.116C15.041 20.314 8.378 27.91 5.16 38.039c-.065.15-.118.31-.161.482-.3.923-.569 1.889-.805 2.897-.043.172-.075.343-.096.515-.022.043-.033.086-.033.13-.9 3.968-1.33 8.282-1.287 12.938.086 3.22-.193 6.116-.837 8.691C.804 67.77.331 71.502.525 74.893c.043.837.129 1.653.257 2.447 0 .128.022.268.065.418.064.622.193 1.223.386 1.803.386 1.48.933 2.896 1.641 4.248.28.494.58.977.902 1.449.021.085.086.182.193.29 1.545 2.36 3.68 4.43 6.405 6.212.923.621 1.91 1.212 2.961 1.77.902.494 1.846.976 2.833 1.448 7.274 3.412 15.203 5.376 23.786 5.89.559.043 1.138.086 1.739.13 3.498.257 7.006.3 10.525.128.322-.043.655-.075.998-.096 1.545-.108 3.1-.247 4.667-.419 2.21-.279 4.334-.6 6.373-.965.258-.065.526-.118.805-.161 4.417-.905 8.494-2.128 12.231-3.67l.225-.096c3.198-1.373 6.148-2.983 8.852-4.828.45-.322.901-.655 1.352-.998 3.948-2.983 7.285-6.534 10.01-10.654 2.124-3.262 3.852-6.856 5.182-10.783 1.416-4.528 2.136-8.97 2.157-13.326-.021-4.313-.73-8.54-2.125-12.682-.9-2.682-2.08-5.322-3.54-7.918-.345-.593-.698-1.184-1.062-1.77-.282-.475-.572-.946-.87-1.416l-.708-.966c-.171-.3-.364-.58-.579-.837-.214-.257-.397-.515-.547-.772" transform="translate(22.917 16.667)"/>
                        <path stroke="#000" stroke-linecap="round" stroke-linejoin="round" stroke-width="1.082" d="M1.941 63.692C.804 67.77.331 71.502.525 74.893c.043.837.129 1.653.257 2.447 0 .128.022.268.065.418.064.622.193 1.223.386 1.803.386 1.48.933 2.896 1.642 4.248.278.494.579.977.9 1.449.022.085.086.182.194.29 1.545 2.36 3.68 4.43 6.405 6.212.923.621 1.91 1.212 2.962 1.77.9.494 1.845.976 2.832 1.448 7.274 3.412 15.203 5.376 23.787 5.89.558.043 1.137.086 1.738.13 3.498.257 7.006.3 10.525.128.322-.043.655-.075.998-.096 1.545-.108 3.1-.247 4.667-.419 2.21-.279 4.334-.6 6.373-.965.258-.065.526-.118.805-.161 4.417-.905 8.494-2.128 12.231-3.67l.225-.096c3.198-1.373 6.148-2.983 8.852-4.828.45-.322.901-.655 1.352-.998 3.948-2.983 7.285-6.534 10.01-10.654 2.125-3.262 3.852-6.856 5.182-10.783 1.417-4.528 2.136-8.97 2.157-13.326-.021-4.313-.73-8.54-2.124-12.682-.902-2.682-2.082-5.322-3.541-7.918-.344-.593-.693-1.184-1.046-1.77-.293-.475-.588-.946-.885-1.416l-.708-.966c-.172-.3-.365-.58-.58-.837-.214-.257-.397-.515-.547-.772-.322-.43-.655-.848-.998-1.256-7.145-8.669-16.105-14.248-26.876-16.737-3.391-.751-7.082-1.299-11.073-1.642-.88-.085-1.738-.14-2.575-.16-1.931-.065-3.841-.044-5.73.064-.107 0-.214.021-.321.064-.129-.021-.247-.021-.354 0-.107.021-.215.032-.322.032-7.532.6-14.946 2.64-22.242 6.116C15.041 20.314 8.378 27.91 5.16 38.039c-.064.15-.118.31-.161.482-.3.923-.568 1.889-.805 2.897-.043.172-.075.343-.096.515-.022.043-.032.086-.032.13C3.164 46.03 2.735 50.344 2.778 55c.086 3.22-.193 6.116-.837 8.691z" transform="translate(22.917 16.667)"/>
                        <path fill="#FFF" d="M88.461 14.703c.708-3.541.504-6.856-.611-9.946C86.26 1.023 83.815-.265 80.51.894c-.557.171-1.147.44-1.77.805-4.11 2.574-7.673 6.468-10.686 11.684-.134.254-.274.512-.418.772-.02.043-.041.086-.065.13l-.354.643-.386.772c-.286.556-.566 1.124-.837 1.706.515.435 1.041.854 1.577 1.256.38.287.767.566 1.16.837.17.112.342.22.514.321.043.04.086.071.129.097 3.23 2.09 6.793 3.583 10.686 4.474.043.012.086.023.129.032.086.02.172.04.257.065 1.224.258 2.479.462 3.766.611.506-.812.967-1.628 1.384-2.446.053-.086.096-.172.13-.258.053-.085.096-.17.128-.257 1.234-2.451 2.103-4.93 2.607-7.435" transform="translate(22.917 16.667)"/>
                        <path stroke="#000" stroke-linecap="round" stroke-linejoin="round" stroke-width="1.082" d="M85.613 22.653c.041-.086.085-.172.128-.257l.13-.258c1.222-2.451 2.086-4.93 2.59-7.435.708-3.54.504-6.856-.611-9.946C86.26 1.023 83.815-.264 80.51.894c-.557.172-1.147.44-1.77.805-4.111 2.574-7.667 6.468-10.67 11.684-.145.254-.29.512-.434.773-.02.042-.041.085-.065.128-.116.213-.229.427-.337.644" transform="translate(22.917 16.667)"/>
                        <path fill="#96CBF9" d="M81.895 51.396c-2.654 2.768-4.199 5.192-4.635 7.275-.408 2.113-.3 4.527.322 7.242.214.772.45 1.524.708 2.253 1.888 5.58 4.753 11.008 8.594 16.287.577.822 1.586 2.045 3.026 3.67 3.01-2.592 5.618-5.553 7.821-8.884 2.125-3.262 3.852-6.856 5.182-10.783 1.417-4.528 2.135-8.97 2.157-13.326-.02-3.811-.577-7.556-1.674-11.233-.138-.484-.288-.967-.45-1.449-.4-1.19-.862-2.37-1.384-3.54-7.62 2.685-14.175 6.849-19.667 12.488" transform="translate(22.917 16.667)"/>
                        <path stroke="#000" stroke-linecap="round" stroke-linejoin="round" stroke-width=".773" d="M89.926 88.122c-1.45-1.623-2.465-2.846-3.042-3.67-3.84-5.278-6.706-10.707-8.594-16.286-.258-.73-.493-1.48-.708-2.253-.622-2.714-.724-5.128-.306-7.242.426-2.082 1.965-4.507 4.619-7.275 5.492-5.64 12.053-9.803 19.682-12.488" transform="translate(22.917 16.667)"/>
                        <path stroke="#000" stroke-linecap="round" stroke-linejoin="round" stroke-width="1.082" d="M89.926 88.122c3-2.59 5.601-5.552 7.805-8.884 2.124-3.261 3.852-6.855 5.182-10.782 1.416-4.528 2.136-8.97 2.157-13.326-.019-3.811-.571-7.556-1.658-11.233-.149-.484-.304-.967-.467-1.449-.4-1.189-.855-2.37-1.368-3.54m0 0c-.072-.18-.146-.356-.225-.532" transform="translate(22.917 16.667)"/>
                        <path fill="#000" d="M25.663 62.952c.794-1.48 1.191-3.272 1.191-5.375 0-2.104-.397-3.906-1.19-5.408-.794-1.48-1.76-2.22-2.898-2.22-1.137 0-2.103.74-2.896 2.22-.816 1.502-1.224 3.304-1.224 5.408 0 2.103.408 3.894 1.224 5.375.793 1.523 1.759 2.285 2.896 2.285 1.138 0 2.104-.762 2.897-2.285" transform="translate(22.917 16.667)"/>
                        <path fill="#96CBF9" d="M24.665 43.012c.021.003.041.015.06.039.587.169 1.158.077 1.711-.275.546-.267.906-.715 1.08-1.344.168-.587.1-1.177-.205-1.769-.27-.524-.685-.88-1.248-1.068l-8.423-2.398c-.589-.147-1.146-.076-1.673.215-.552.33-.914.8-1.085 1.407-.17.608-.112 1.175.18 1.702.27.503.644.854 1.119 1.055.04.026.092.042.156.049l8.328 2.387z" transform="translate(22.917 16.667)"/>
                        <path stroke="#000" stroke-linecap="round" stroke-linejoin="round" stroke-width=".773" d="M16.362 40.603l8.328 2.387c.021.002.041.015.06.039.587.169 1.157.077 1.711-.275.546-.267.906-.715 1.079-1.344.168-.587.1-1.176-.204-1.77-.27-.523-.685-.88-1.249-1.067l-8.422-2.397c-.59-.148-1.147-.077-1.673.214-.553.33-.914.8-1.085 1.408-.171.608-.112 1.175.179 1.701.27.503.644.855 1.12 1.055.04.026.093.042.156.049z" transform="translate(22.917 16.667)"/>
                        <path fill="#000" d="M49.643 57.576c0 2.104.408 3.895 1.223 5.376.794 1.523 1.76 2.285 2.897 2.285 1.138 0 2.103-.762 2.897-2.285.816-1.48 1.223-3.272 1.223-5.376 0-2.103-.407-3.905-1.223-5.407-.794-1.48-1.76-2.221-2.897-2.221-1.137 0-2.103.74-2.897 2.221-.815 1.502-1.223 3.304-1.223 5.407" transform="translate(22.917 16.667)"/>
                        <path fill="#96CBF9" d="M61.005 37.395c-.494-.343-1.04-.472-1.641-.386l-8.627 1.512c-.579.13-1.03.44-1.351.934-.365.558-.494 1.137-.387 1.738.108.644.419 1.127.934 1.448.515.408 1.073.559 1.673.451.022-.022.044-.032.065-.032l8.53-1.513c.064 0 .117-.01.16-.032.494-.15.902-.462 1.224-.934.343-.493.461-1.051.354-1.673-.108-.623-.419-1.127-.934-1.513" transform="translate(22.917 16.667)"/>
                        <path stroke="#000" stroke-linecap="round" stroke-linejoin="round" stroke-width=".773" d="M60.2 41.547l-8.53 1.513c-.02 0-.042.01-.064.032-.6.107-1.158-.043-1.673-.45-.515-.322-.826-.805-.934-1.449-.107-.6.022-1.18.387-1.738.321-.494.772-.805 1.351-.933l8.627-1.513c.6-.087 1.147.043 1.641.386.515.386.826.89.934 1.513.107.622-.011 1.18-.354 1.674-.322.471-.73.782-1.224.933-.043.021-.096.032-.16.032zM46.199 72.866c-.322 1.158-1.116 2.177-2.382 3.057-1.695 1.202-3.755 1.803-6.18 1.803s-4.495-.6-6.212-1.803c-1.244-.88-2.028-1.899-2.35-3.057" transform="translate(22.917 16.667)"/>
                        <path fill="#96CBF9" d="M3.164 47.373c-.281 2.428-.41 4.96-.386 7.596.09 3.25-.19 6.146-.837 8.69-.426 1.56-.759 3.062-.998 4.507 1.993-2.534 3.624-4.69 4.893-6.47 1.435-1.983 1.746-4.194.933-6.63-.547-1.673-1.749-4.237-3.605-7.693" transform="translate(22.917 16.667)"/>
                        <path stroke="#000" stroke-linecap="round" stroke-linejoin="round" stroke-width=".773" d="M.943 68.166c1.993-2.534 3.623-4.686 4.893-6.454 1.435-1.994 1.752-4.204.95-6.63-.559-1.683-1.766-4.253-3.622-7.71" transform="translate(22.917 16.667)"/>
                        <path stroke="#000" stroke-linecap="round" stroke-linejoin="round" stroke-width="1.082" d="M3.164 47.373c-.281 2.428-.41 4.965-.386 7.612.09 3.238-.19 6.135-.837 8.691-.426 1.548-.759 3.045-.998 4.49" transform="translate(22.917 16.667)"/>
                    </g>
                </g>
            </g>
        </g>
    </g>
</svg>
