<svg width="35" height="35" viewBox="0 0 35 35" fill="none" xmlns="http://www.w3.org/2000/svg">
<path d="M14.0886 32.0223L11.3751 31.466L9.80496 33.0922L4.45264 28.8679L8.02228 26.4318L11.8178 22.2781C12.4539 21.582 13.5783 21.6824 14.0809 22.4805L18.5777 27.6377C19.2572 28.4171 19.065 29.6219 18.1763 30.1512L15.5271 31.7288C15.0646 32.0084 14.6243 32.0321 14.0886 32.0223Z" fill="#FFE7CF"/>
<path d="M18.5778 27.6377L17.4805 26.3792L12.9047 29.106C12.4422 29.3856 12.0019 29.4094 11.466 29.3995L9.08942 29.1437L7.0365 30.9069L9.80532 33.0923L11.3752 31.4658L14.0887 32.0223C14.6244 32.0319 15.065 32.0084 15.5272 31.7288L18.1764 30.1512C19.0651 29.6219 19.2573 28.4171 18.5778 27.6377Z" fill="#EFD5BD"/>
<path d="M18.4455 27.7477C17.9157 26.926 17.2703 27.3418 16.7405 26.5199C16.2107 25.6982 16.8561 25.2822 16.3264 24.4605C15.7963 23.6386 15.1512 24.0547 14.6214 23.2327C14.0913 22.4106 14.7367 21.9945 14.2067 21.1726C13.8828 20.6703 13.2961 19.6332 12.9388 19.4906L10.0792 20.9035L15.0556 28.752C15.541 29.5053 16.5453 29.7224 17.2986 29.2366L18.2508 28.623C18.5416 28.4353 18.6362 28.0465 18.4498 27.7546C18.4484 27.7522 18.4471 27.7501 18.4455 27.7477Z" fill="#344A5D"/>
<path d="M10.2197 22.1184L7.97323 23.5046C7.54705 23.7676 6.98816 23.6352 6.72514 23.209L5.45515 21.1507C5.19213 20.7246 5.32457 20.1657 5.75075 19.9026L7.99726 18.5165C8.26109 18.3539 8.60689 18.4356 8.76978 18.6994L10.4027 21.3459C10.5655 21.6098 10.4836 21.9556 10.2197 22.1184Z" fill="#344A5D"/>
<path d="M11.5981 14.7653L7.03835 17.579C6.43807 17.9491 6.25195 18.7357 6.62205 19.3357L8.8707 22.9801C9.24107 23.5802 10.0275 23.7665 10.6278 23.3962L15.1875 20.5828L29.61 17.4433L20.8731 3.28329L11.5981 14.7653Z" fill="#FED066"/>
<path d="M27.5515 14.107L13.2032 17.3672C13.2032 17.3672 8.26318 20.4151 7.55688 20.8511L8.87067 22.9801C9.24077 23.5801 10.0274 23.7665 10.6274 23.3962L15.1875 20.5827L29.61 17.4433L27.5515 14.107Z" fill="#F5B556"/>
<path d="M15.1875 20.5828L10.6275 23.3962C10.0275 23.7666 9.24081 23.5802 8.87071 22.9802L6.62206 19.3358C6.25169 18.7357 6.43808 17.9491 7.03809 17.579L11.5981 14.7653L15.1875 20.5828Z" fill="#FD715C"/>
<path d="M13.2032 17.3672C13.2032 17.3672 8.26318 20.4151 7.55688 20.8511L8.87067 22.9802C9.24077 23.5802 10.0274 23.7666 10.6274 23.3962L12.9073 21.9895L15.1875 20.5828L13.2032 17.3672Z" fill="#D83E3A"/>
<path d="M30.4752 18.4495L29.8527 18.8335C29.5302 19.0324 29.1072 18.9323 28.9082 18.6097L19.5158 3.38745C19.3166 3.06461 19.4167 2.6419 19.7395 2.4427L20.362 2.05871C20.6846 1.85951 21.1075 1.95965 21.3065 2.28248L30.6989 17.5047C30.8981 17.8273 30.7977 18.2503 30.4752 18.4495Z" fill="#FD715C"/>
<path d="M30.699 17.5047L29.154 15.0003L27.363 16.1055L28.9083 18.6097C29.1073 18.9323 29.5302 19.0324 29.8528 18.8335L30.4753 18.4495C30.7978 18.2503 30.8982 17.8273 30.699 17.5047Z" fill="#D83E3A"/>
<path d="M17.0303 29.8201C17.3697 30.3757 18.0955 30.5512 18.6512 30.2115L20.3695 29.161C20.9249 28.8216 21.1001 28.0964 20.7607 27.541C20.4213 26.9853 19.6955 26.8101 19.1401 27.1495L17.4215 28.2C16.8663 28.5394 16.6912 29.2646 17.0303 29.8201Z" fill="#FFE7CF"/>
<path d="M20.7607 27.541C20.6216 27.3132 20.4171 27.1506 20.1866 27.0601C20.247 27.509 20.0451 27.9723 19.6336 28.2238L17.915 29.2743C17.5871 29.4746 17.2007 29.4943 16.8688 29.364C16.8899 29.521 16.9425 29.6764 17.0303 29.8204C17.3697 30.3761 18.0955 30.5512 18.6512 30.2116L20.3695 29.1611C20.9249 28.8217 21.0999 28.0964 20.7607 27.541Z" fill="#EFD5BD"/>
<path d="M16.2943 27.5004C16.6387 28.0646 17.3755 28.2425 17.9394 27.8977L19.6273 26.8659C20.191 26.5215 20.3689 25.7853 20.0247 25.2213C19.6802 24.6573 18.9435 24.4795 18.3795 24.8242L16.6913 25.856C16.1276 26.2005 15.9498 26.9367 16.2943 27.5004Z" fill="#FFE7CF"/>
<path d="M20.0247 25.2213C19.8875 24.9967 19.6877 24.8347 19.4615 24.7409C19.519 25.1938 19.3141 25.6592 18.8995 25.9127L17.2113 26.9445C16.8719 27.1519 16.4706 27.169 16.129 27.0278C16.1496 27.1904 16.2033 27.3514 16.2943 27.5004C16.6388 28.0646 17.3755 28.2425 17.9395 27.8978L19.6274 26.866C20.1911 26.5215 20.3689 25.7853 20.0247 25.2213Z" fill="#EFD5BD"/>
<path d="M15.0361 25.4718C15.3806 26.0358 16.1173 26.2139 16.6813 25.8691L18.3694 24.8371C18.9331 24.4926 19.1107 23.7564 18.7665 23.1927C18.422 22.6285 17.6853 22.4506 17.1213 22.7954L15.4332 23.8272C14.8695 24.1716 14.6916 24.9078 15.0361 25.4718Z" fill="#FFE7CF"/>
<path d="M18.7665 23.1927C18.6322 22.9727 18.4378 22.8122 18.2175 22.7177C18.2672 23.1649 18.0627 23.6215 17.6533 23.8717L15.9654 24.9035C15.6212 25.114 15.2135 25.1287 14.8693 24.9813C14.888 25.1497 14.9416 25.3172 15.0359 25.4715C15.3806 26.0358 16.1171 26.2136 16.6813 25.8689L18.3695 24.8371C18.9332 24.4926 19.1108 23.7564 18.7665 23.1927Z" fill="#EFD5BD"/>
<path d="M13.8499 23.3911C14.1944 23.9551 14.9311 24.1329 15.4951 23.7882L17.1833 22.7564C17.747 22.4119 17.9248 21.6757 17.5803 21.1117C17.2359 20.5478 16.4991 20.3699 15.9352 20.7147L14.247 21.7465C13.6833 22.0909 13.5057 22.8271 13.8499 23.3911Z" fill="#FFE7CF"/>
<path d="M17.5803 21.1117C17.422 20.8522 17.1801 20.6757 16.9104 20.5929C17.0134 21.0757 16.8102 21.5913 16.3654 21.8634L14.6772 22.8952C14.3728 23.0813 14.0182 23.1139 13.702 23.0167C13.7295 23.1457 13.7776 23.2723 13.85 23.3911C14.1944 23.9551 14.9312 24.1329 15.4951 23.7882L17.1833 22.7564C17.747 22.4119 17.9248 21.6757 17.5803 21.1117Z" fill="#EFD5BD"/>
<path d="M16.3825 24.8387L16.0695 25.0298C15.5768 25.3311 14.9403 25.1866 14.6471 24.7075L14.1285 23.8595C13.8745 23.4445 13.3221 23.3211 12.8972 23.5847C12.4708 26.7148 8.02234 26.4317 8.02234 26.4317L10.7789 22.28C10.9607 21.9654 11.2189 21.6995 11.5298 21.5067L13.0855 20.5419C13.8417 20.073 14.8249 20.292 15.2775 21.0306L16.7438 23.4234C17.0375 23.9032 16.8757 24.5372 16.3825 24.8387Z" fill="#FFE7CF"/>
<path d="M16.7435 23.4237L16.7315 23.4039C16.6466 23.5404 16.5296 23.6603 16.3825 23.7503L16.0693 23.9417C15.5769 24.2427 14.9403 24.0985 14.6471 23.6192L14.1285 22.7713C13.8746 22.3561 13.3221 22.233 12.8973 22.4963C12.7183 23.809 11.9157 25.067 11.0198 25.9287C11.9261 25.5305 12.728 24.8261 12.8973 23.5847C13.3221 23.3211 13.8746 23.4445 14.1285 23.8595L14.6471 24.7076C14.9403 25.1866 15.5769 25.3311 16.0693 25.0301L16.3825 24.8387C16.8757 24.5372 17.0375 23.9033 16.7435 23.4237Z" fill="#EFD5BD"/>
<path d="M9.89133 33.1945L5.50671 27.9843L6.95054 26.7693C6.99593 26.7311 7.06403 26.737 7.10248 26.7824L11.3482 31.8279C11.3864 31.8733 11.3805 31.9414 11.3352 31.9798L9.89133 33.1945Z" fill="#CDD6DF"/>
<path d="M10.2042 33.1459L5.46528 27.5869C5.42763 27.5426 5.36247 27.5338 5.31414 27.5666L0.267029 31.5507C0.0985336 31.6837 0 31.8869 0 32.1019V33.7227C0 34.1104 0.314293 34.4247 0.702286 34.4247H8.95855C9.1711 34.4247 9.37244 34.3283 9.50596 34.1625L10.1994 33.2992C10.2403 33.257 10.2422 33.1905 10.2042 33.1459Z" fill="#3C5666"/>
<path d="M27.9795 8.75846C27.8046 8.75846 27.634 8.67034 27.5357 8.51066C27.3851 8.26579 27.4615 7.94536 27.7064 7.79475L30.5267 6.05987C30.7716 5.90926 31.092 5.98563 31.2424 6.2305C31.393 6.4751 31.3166 6.79553 31.072 6.94614L28.2516 8.68102C28.1665 8.73363 28.0725 8.75846 27.9795 8.75846Z" fill="black"/>
<path d="M34.4805 13.0061C34.4636 13.0061 34.4465 13.0053 34.4294 13.0037L30.2945 12.6018C30.0085 12.574 29.7992 12.3198 29.8269 12.0336C29.8547 11.7479 30.1092 11.538 30.3952 11.5663L34.5301 11.9679C34.8161 11.9957 35.0255 12.2501 34.9977 12.5361C34.9715 12.805 34.7451 13.0061 34.4805 13.0061Z" fill="black"/>
<path d="M25.6129 4.91245C25.5501 4.91245 25.4863 4.90097 25.4243 4.87693C25.1565 4.77279 25.0241 4.47105 25.1282 4.20349L26.6342 0.331569C26.7384 0.0637394 27.0401 -0.0684398 27.3077 0.0354344C27.5755 0.139576 27.7082 0.441051 27.6041 0.708881L26.098 4.58053C26.0179 4.78641 25.8211 4.91245 25.6129 4.91245Z" fill="black"/>
</svg>
