<svg id="Layer_1" data-name="Layer 1" xmlns="http://www.w3.org/2000/svg" viewBox="0 0 365 96"><defs><style>.cls-1{fill:#22d1b2;}.cls-2{fill:#666;}</style></defs><path class="cls-1" d="M24.33,58.22h25a2.75,2.75,0,0,0,1.84-.66A2.09,2.09,0,0,0,52,55.88V53.54a2.13,2.13,0,0,0-.78-1.64,2.63,2.63,0,0,0-1.84-.69H27.56c-6.27,0-7.46-3.8-7.64-5.88V39.58H48.41a2.75,2.75,0,0,0,1.84-.66A2.09,2.09,0,0,0,51,37.24V34.68A2.13,2.13,0,0,0,50.25,33a2.64,2.64,0,0,0-1.84-.7H13.91a2.64,2.64,0,0,0-1.84.7,2.13,2.13,0,0,0-.78,1.64V45.42l.05,0S9.9,58.22,24.33,58.22Z"/><path class="cls-1" d="M59.16,65.24H3.86A2.72,2.72,0,0,0,2,65.93a2.18,2.18,0,0,0-.77,1.65V70A2.13,2.13,0,0,0,2,71.67a2.79,2.79,0,0,0,1.84.66h23.2V87.39a.22.22,0,0,0,0,.08.17.17,0,0,0,0,.07,4.63,4.63,0,1,0,9.26,0s0-.05,0-.07,0,0,0-.08V72.33H59.16A2.75,2.75,0,0,0,61,71.67,2.1,2.1,0,0,0,61.78,70V67.58A2.16,2.16,0,0,0,61,65.93,2.68,2.68,0,0,0,59.16,65.24Z"/><path class="cls-1" d="M191.83,63.48a2.05,2.05,0,0,0,1.33.81,3.19,3.19,0,0,0,1.63,0,25.9,25.9,0,0,0,4.71-1.72,54.62,54.62,0,0,0,5.7-3,43.21,43.21,0,0,0,5.39-4,19.17,19.17,0,0,0,3.87-4.45A15.43,15.43,0,0,0,217,54.31a34.21,34.21,0,0,0,4.44,3.84,46.34,46.34,0,0,0,5.73,3.58,27.26,27.26,0,0,0,6.57,2.49,3.36,3.36,0,0,0,1.82-.08,2.5,2.5,0,0,0,1.44-1l1.45-2a2.25,2.25,0,0,0,.34-2,2.38,2.38,0,0,0-1.71-1.46,32.53,32.53,0,0,1-12.87-8.19q-4.66-5.12-4.9-13.75V33.22a2.12,2.12,0,0,0-.83-1.65,3,3,0,0,0-2-.69H212a3,3,0,0,0-2,.69,2.1,2.1,0,0,0-.84,1.65V35.7q-.22,8.77-4.93,13.86a32.47,32.47,0,0,1-12.91,8.08,2.35,2.35,0,0,0-1.71,1.46,2.15,2.15,0,0,0,.41,2Z"/><path class="cls-1" d="M239.7,73.57H188.84a5.58,5.58,0,0,0-2.81.7,2.07,2.07,0,0,0-.84,1.64v2.63a2,2,0,0,0,.84,1.68,5.89,5.89,0,0,0,2.81.66H239.7a3.66,3.66,0,1,0,0-7.31Z"/><path class="cls-1" d="M112.64,85.33a2.87,2.87,0,0,0-1.84-.61l-25.13,0c-3.94-.29-5.33-3.18-5.39-4.14v-.34s0-.1,0-.13h29.24a3,3,0,0,0,1.84-.58,1.79,1.79,0,0,0,.77-1.48V67.1a1.82,1.82,0,0,0-.77-1.45,2.88,2.88,0,0,0-1.84-.62H74.81a2.88,2.88,0,0,0-1.84.62,1.8,1.8,0,0,0-.78,1.45V69A1.78,1.78,0,0,0,73,70.45a3,3,0,0,0,1.84.58H103v3.42H74.81a2.87,2.87,0,0,0-1.84.61,1.82,1.82,0,0,0-.78,1.46v.32h0s0,.25,0,.68C72.46,80.3,73.79,87.9,80.59,90v0a15,15,0,0,0,4.63.62l.12,0H110.8a3,3,0,0,0,1.84-.58,1.79,1.79,0,0,0,.78-1.49V86.78A1.79,1.79,0,0,0,112.64,85.33Z"/><path class="cls-1" d="M117.26,55.14a2.9,2.9,0,0,0-1.84-.62h-6.74a20.26,20.26,0,0,0,2.54-5.64c.28-1.74.51-3.49.68-5.25q.52-5.48.53-10.64a1.8,1.8,0,0,0-.78-1.45,2.87,2.87,0,0,0-1.84-.61H74.67a2.87,2.87,0,0,0-1.84.61A1.8,1.8,0,0,0,72.05,33v2.39a1.78,1.78,0,0,0,.78,1.48,3,3,0,0,0,1.84.58h28.71c0,.9,0,1.77-.07,2.61s-.1,1.64-.15,2.42c-3.53.26-6.59.42-9.15.48s-5,.1-7.25.1H74.6a2.87,2.87,0,0,0-1.84.61A1.8,1.8,0,0,0,72,45.11v2a1.76,1.76,0,0,0,.78,1.48,3,3,0,0,0,1.84.58H85.49q4.59,0,8.8-.16t8.1-.48c-.78,6.06-8.31,6-8.31,6H64.35a2.86,2.86,0,0,0-1.84.62,1.8,1.8,0,0,0-.78,1.45v2.47a1.78,1.78,0,0,0,.78,1.49,3,3,0,0,0,1.84.58h51.07a3,3,0,0,0,1.84-.58,1.8,1.8,0,0,0,.77-1.49V56.59A1.82,1.82,0,0,0,117.26,55.14Z"/><path class="cls-1" d="M175.64,29.64h-3.32a2.68,2.68,0,0,0-1.84.69A2.13,2.13,0,0,0,169.7,32V47.91h-5.29V33.07a2.15,2.15,0,0,0-.77-1.64,2.66,2.66,0,0,0-1.84-.7h-3a2.64,2.64,0,0,0-1.84.7,2.13,2.13,0,0,0-.78,1.64V55.74c-.45,6.27-5.12,7.37-7.8,8.17a18.92,18.92,0,0,1-1.86.4l-.48.07c-1.29.12-2.55.23-3.82.32l-.76,0-.51,0c-7,.53-8.06-3.18-8.17-4.78v-.7h0V55.51h14.07a2.76,2.76,0,0,0,1.84-.65,2.11,2.11,0,0,0,.78-1.69V35.34a2.16,2.16,0,0,0-.78-1.65,2.7,2.7,0,0,0-1.84-.69H126.66a2.66,2.66,0,0,0-1.84.69,2.16,2.16,0,0,0-.78,1.65v2.27a2.07,2.07,0,0,0,.78,1.67,2.69,2.69,0,0,0,1.84.66h14.07v8.85h-14a2.68,2.68,0,0,0-1.84.69,2.16,2.16,0,0,0-.78,1.65V61.19a10.86,10.86,0,0,0,2.56,6.59c2.12,2.13,5.91,4.08,12.81,4.09l1.6-.13c1.75-.14,3.5-.3,5.27-.47A49.22,49.22,0,0,0,155,69.49a12.79,12.79,0,0,0,1.26-.55V75h0a4.1,4.1,0,0,0,8.15,0h0v-.17s0-.07,0-.11,0-.07,0-.11v-.78s0-.07,0-.11V56a.36.36,0,0,1,0,.09v-.21h5.29V86.37a2.48,2.48,0,0,0,0,.27c0,.09,0,.18,0,.27a4.27,4.27,0,1,0,8.53,0,.76.76,0,0,0,0-.15,2.58,2.58,0,0,0,0-.39V32a2.15,2.15,0,0,0-.77-1.65A2.72,2.72,0,0,0,175.64,29.64Z"/><path class="cls-1" d="M51.16,22.36v1.11l-10.86.07V22.43a9.26,9.26,0,0,0-2.72-6.56,9.07,9.07,0,0,0-13,.08A9.22,9.22,0,0,0,22,22.54v1.12l-10.85.06V22.61a20.43,20.43,0,0,1,5.78-14.4A19.84,19.84,0,0,1,45.21,8a20.39,20.39,0,0,1,5.95,14.32Z"/><path class="cls-2" d="M305.71,72H287.84V67.12s0,0,0-.06,0,0,0-.06a3.85,3.85,0,1,0-7.7,0v5H263.43a7,7,0,0,0-1.1.11h-.11a2.31,2.31,0,0,0-1.52.55,1.76,1.76,0,0,0-.65,1.4v2a1.77,1.77,0,0,0,.65,1.36,2.19,2.19,0,0,0,1.52.58h.4a6.44,6.44,0,0,0,.81.06h42.28a3,3,0,0,0,.74-.1,2.12,2.12,0,0,0,.95-.41l0,0,.14-.11.05,0A3,3,0,0,0,305.71,72Z"/><path class="cls-2" d="M266.79,66.32c.55.12,2.69-.73,4.33-1.45a46,46,0,0,0,5-2.55,37.54,37.54,0,0,0,4.71-3.38,16.5,16.5,0,0,0,3.39-3.74,13.48,13.48,0,0,0,2.22,2.73,29.09,29.09,0,0,0,3.88,3.22,40.49,40.49,0,0,0,5,3c1.84,1,5.55,2.2,6.12,2a2.18,2.18,0,0,0,1.26-.8s1.76-2.86,1.56-3.44a1.88,1.88,0,0,0-1.49-1.22c-4.92-1-9.77-5.67-9.77-5.67s-4.08-3-4.5-7.57h12.68a2.62,2.62,0,0,0,1.73-.6,1.88,1.88,0,0,0,.74-1.52V43.05a1.92,1.92,0,0,0-.74-1.49,2.54,2.54,0,0,0-1.73-.63H288.5V36.67a1.75,1.75,0,0,0-.68-1.37,2.42,2.42,0,0,0-1.6-.58h-3.64a2.4,2.4,0,0,0-1.6.58,1.75,1.75,0,0,0-.68,1.37v4.26H268.17a2.63,2.63,0,0,0-1.73.59,1.87,1.87,0,0,0-.73,1.53v2.32a1.87,1.87,0,0,0,.73,1.48,2.57,2.57,0,0,0,1.73.64h11.4c-.44,4.61-4.78,7.57-4.78,7.57s-4.85,4.67-9.56,5.67A2,2,0,0,0,263.74,62c-.2.58,1.89,3.69,1.89,3.69A1.82,1.82,0,0,0,266.79,66.32Z"/><path class="cls-2" d="M324.59,54h27.56a2,2,0,0,0,1.83-.85,3.58,3.58,0,0,0,.58-2,3.49,3.49,0,0,0-.58-2,2,2,0,0,0-1.83-.85H328.26A1.11,1.11,0,0,1,327,47V43.13a1.11,1.11,0,0,1,1.26-1.26H351.6a2,2,0,0,0,1.83-.85A3.53,3.53,0,0,0,354,39a3.42,3.42,0,0,0-.58-2,2,2,0,0,0-1.83-.85h-27c-1.75,0-3,.33-3.64,1s-1,1.85-1,3.56v8.82c0,1.72.34,2.91,1,3.56S322.84,54,324.59,54Z"/><path class="cls-2" d="M349.73,69.34a18.87,18.87,0,0,0-5.45-1.75,45.17,45.17,0,0,0-14.43,0,19,19,0,0,0-5.43,1.75,8.88,8.88,0,0,0-3.42,3,8.63,8.63,0,0,0,0,8.71,8.94,8.94,0,0,0,3.42,3,19,19,0,0,0,5.43,1.75,45.17,45.17,0,0,0,14.43,0,18.87,18.87,0,0,0,5.45-1.75,8.9,8.9,0,0,0,3.43-3,8.63,8.63,0,0,0,0-8.71A8.85,8.85,0,0,0,349.73,69.34ZM345,79.78q-2.38,1.09-7.92,1.09t-7.92-1.09c-1.58-.73-2.38-1.75-2.38-3.07s.8-2.34,2.38-3.07,4.23-1.09,7.92-1.09,6.33.36,7.92,1.09,2.38,1.75,2.38,3.07S346.59,79.05,345,79.78Z"/><path class="cls-2" d="M358.32,58.47H316a4.66,4.66,0,0,0-2.33.58,1.71,1.71,0,0,0-.69,1.37V62.6a1.66,1.66,0,0,0,.69,1.4,4.86,4.86,0,0,0,2.33.55h42.28a3,3,0,1,0,0-6.08Z"/></svg>