<svg id="Layer_1" data-name="Layer 1" xmlns="http://www.w3.org/2000/svg" viewBox="0 0 420 96"><defs><style>.cls-1{fill:#0594f7;}.cls-2{fill:#666;}</style></defs><path class="cls-1" d="M24.22,58.34H49.43a2.78,2.78,0,0,0,1.85-.66A2.12,2.12,0,0,0,52.07,56V53.63A2.18,2.18,0,0,0,51.28,52a2.67,2.67,0,0,0-1.85-.7h-22c-6.32,0-7.52-3.83-7.7-5.92v-5.8H48.5a2.72,2.72,0,0,0,1.85-.67,2.09,2.09,0,0,0,.79-1.69V34.61A2.14,2.14,0,0,0,50.35,33a2.7,2.7,0,0,0-1.85-.7H13.71a2.76,2.76,0,0,0-1.86.7,2.17,2.17,0,0,0-.78,1.66V45.44l0,0S9.67,58.34,24.22,58.34Z"/><path class="cls-1" d="M59.34,65.42H3.58a2.71,2.71,0,0,0-1.85.7A2.17,2.17,0,0,0,1,67.78v2.43a2.13,2.13,0,0,0,.78,1.7,2.78,2.78,0,0,0,1.85.66H27V87.76s0,0,0,.08,0,0,0,.07a4.67,4.67,0,1,0,9.34,0s0,0,0-.07,0,0,0-.08V72.57h23a2.78,2.78,0,0,0,1.85-.66,2.11,2.11,0,0,0,.79-1.7V67.78a2.14,2.14,0,0,0-.79-1.66A2.71,2.71,0,0,0,59.34,65.42Z"/><path class="cls-1" d="M193.11,63.65a2,2,0,0,0,1.34.81,3.06,3.06,0,0,0,1.65,0,25.73,25.73,0,0,0,4.74-1.73,52.83,52.83,0,0,0,5.75-3.06A44.92,44.92,0,0,0,212,55.62a19.52,19.52,0,0,0,3.9-4.5,15.1,15.1,0,0,0,2.57,3.28A33.84,33.84,0,0,0,223,58.27a46.54,46.54,0,0,0,5.79,3.61,26.71,26.71,0,0,0,6.62,2.51,3.42,3.42,0,0,0,1.84-.07,2.63,2.63,0,0,0,1.45-1l1.45-2.07a2.23,2.23,0,0,0,.35-2.06,2.39,2.39,0,0,0-1.72-1.47,32.83,32.83,0,0,1-13-8.26q-4.71-5.16-4.94-13.86v-2.5a2.09,2.09,0,0,0-.84-1.66,3,3,0,0,0-2-.7h-4.52a3,3,0,0,0-2,.7,2.09,2.09,0,0,0-.84,1.66v2.5q-.22,8.85-5,14a32.66,32.66,0,0,1-13,8.15,2.39,2.39,0,0,0-1.72,1.47,2.16,2.16,0,0,0,.42,2.06Z"/><path class="cls-1" d="M241.38,73.82H190.09a5.79,5.79,0,0,0-2.83.7,2.11,2.11,0,0,0-.84,1.67v2.65a2.05,2.05,0,0,0,.84,1.69,5.89,5.89,0,0,0,2.83.67h51.29a3.69,3.69,0,0,0,0-7.38Z"/><path class="cls-1" d="M113.26,85.68a2.9,2.9,0,0,0-1.85-.61L86.07,85c-4-.3-5.37-3.21-5.44-4.18V80.5a.66.66,0,0,0,0-.13h29.49a3,3,0,0,0,1.85-.59,1.8,1.8,0,0,0,.78-1.5v-11a1.85,1.85,0,0,0-.78-1.47,2.9,2.9,0,0,0-1.85-.61h-35a3,3,0,0,0-1.86.61,1.85,1.85,0,0,0-.78,1.47v1.89a1.79,1.79,0,0,0,.78,1.49,3.06,3.06,0,0,0,1.86.59h28.37v3.44H75.12a3,3,0,0,0-1.86.62,1.82,1.82,0,0,0-.78,1.46v.33h0s0,.25,0,.69c.25,2.8,1.59,10.46,8.44,12.62l0,0a15.31,15.31,0,0,0,4.67.63h25.78a3.06,3.06,0,0,0,1.85-.58,1.82,1.82,0,0,0,.79-1.5V87.14A1.83,1.83,0,0,0,113.26,85.68Z"/><path class="cls-1" d="M117.92,55.24a2.87,2.87,0,0,0-1.85-.62h-6.8a20.46,20.46,0,0,0,2.56-5.69c.28-1.76.51-3.52.69-5.3.35-3.68.53-7.26.53-10.72a1.85,1.85,0,0,0-.79-1.47,2.91,2.91,0,0,0-1.85-.62H75a2.94,2.94,0,0,0-1.86.62,1.84,1.84,0,0,0-.78,1.47v2.4a1.8,1.8,0,0,0,.78,1.5,3,3,0,0,0,1.86.58h28.94c0,.91,0,1.79-.07,2.63s-.1,1.66-.14,2.44q-5.35.39-9.23.49c-2.6.06-5,.1-7.31.1H74.9a2.85,2.85,0,0,0-1.85.62,1.81,1.81,0,0,0-.78,1.46v2a1.8,1.8,0,0,0,.78,1.5,3,3,0,0,0,1.85.58h11q4.64,0,8.88-.16t8.16-.49c-.78,6.11-8.37,6-8.37,6h-30a2.88,2.88,0,0,0-1.86.62,1.82,1.82,0,0,0-.78,1.46v2.5a1.77,1.77,0,0,0,.78,1.49,3,3,0,0,0,1.86.59h51.5a3,3,0,0,0,1.85-.59,1.77,1.77,0,0,0,.78-1.49V56.7A1.82,1.82,0,0,0,117.92,55.24Z"/><path class="cls-1" d="M176.79,29.52h-3.35a2.66,2.66,0,0,0-1.85.71,2.11,2.11,0,0,0-.79,1.65V48h-5.33V33a2.18,2.18,0,0,0-.79-1.66,2.67,2.67,0,0,0-1.85-.7h-3a2.68,2.68,0,0,0-1.86.7A2.17,2.17,0,0,0,157.2,33V55.85c-.46,6.32-5.17,7.43-7.87,8.23-1.06.27-1.32.31-1.88.41l-.48.06c-1.3.13-2.57.24-3.85.33l-.77.05-.51,0c-7.1.54-8.13-3.2-8.24-4.82v-.71h0V55.62h14.19a2.78,2.78,0,0,0,1.85-.66,2.12,2.12,0,0,0,.79-1.7v-18a2.12,2.12,0,0,0-.79-1.65,2.68,2.68,0,0,0-1.85-.71H127.4a2.68,2.68,0,0,0-1.86.71,2.15,2.15,0,0,0-.78,1.65v2.29a2.11,2.11,0,0,0,.78,1.69,2.74,2.74,0,0,0,1.86.67h14.19v8.92H127.47a2.67,2.67,0,0,0-1.85.7,2.12,2.12,0,0,0-.79,1.65V61.34A11,11,0,0,0,127.41,68c2.13,2.16,6,4.11,12.91,4.13l1.62-.13,5.31-.48A50.38,50.38,0,0,0,156,69.71a12.36,12.36,0,0,0,1.27-.56V75.3h0a4.12,4.12,0,0,0,8.21,0h0v-.18s0-.07,0-.11,0-.07,0-.1v-.8s0-.07,0-.1V56.11l0,.09V56h5.33V86.73a2.48,2.48,0,0,0,0,.27c0,.09,0,.18,0,.28a4.3,4.3,0,1,0,8.6,0c0-.06,0-.1,0-.16a2.45,2.45,0,0,0,0-.39V31.88a2.13,2.13,0,0,0-.78-1.65A2.72,2.72,0,0,0,176.79,29.52Z"/><path class="cls-1" d="M50.35,22.35v1.08H39.64V22.35a9.06,9.06,0,0,0-18.11,0v1.08H10.82V22.35a19.77,19.77,0,1,1,39.53,0Z"/><path class="cls-2" d="M308.09,57.13H264.31a2.2,2.2,0,0,0-1.53.58,1.77,1.77,0,0,0-.65,1.36v2a1.75,1.75,0,0,0,.65,1.4,2.32,2.32,0,0,0,1.53.55H282.5V66.8c-1.17.1-2.26.24-3.29.42A19.18,19.18,0,0,0,273.79,69a8.8,8.8,0,0,0-3.42,3,8.63,8.63,0,0,0,0,8.71,8.8,8.8,0,0,0,3.42,3,18.86,18.86,0,0,0,5.42,1.75,45.1,45.1,0,0,0,14.42,0,19,19,0,0,0,5.45-1.75,8.94,8.94,0,0,0,3.42-3,8.69,8.69,0,0,0,0-8.71,8.94,8.94,0,0,0-3.42-3,19.29,19.29,0,0,0-5.45-1.75c-1.08-.19-2.23-.34-3.44-.43V63h17.9a2.29,2.29,0,0,0,1.52-.55,1.75,1.75,0,0,0,.65-1.4v-2a1.77,1.77,0,0,0-.65-1.36A2.17,2.17,0,0,0,308.09,57.13ZM294.34,73.27c1.59.73,2.38,1.75,2.38,3.07s-.79,2.33-2.38,3.06-4.22,1.09-7.91,1.09-6.32-.36-7.91-1.09-2.38-1.75-2.38-3.06.8-2.34,2.38-3.07,4.23-1.09,7.91-1.09S292.76,72.54,294.34,73.27Z"/><path class="cls-2" d="M270,55.6a2.67,2.67,0,0,0,1.26,0,22.54,22.54,0,0,0,3.62-1.2,42.83,42.83,0,0,0,4.39-2.12,32.86,32.86,0,0,0,4.16-2.8,14.06,14.06,0,0,0,3-3.1,10.8,10.8,0,0,0,2,2.26,26,26,0,0,0,3.42,2.68,37.4,37.4,0,0,0,4.42,2.49,22.52,22.52,0,0,0,5.05,1.74,3,3,0,0,0,1.41-.06,1.91,1.91,0,0,0,1.11-.66s1.55-2.37,1.38-2.85a1.8,1.8,0,0,0-1.32-1,25.37,25.37,0,0,1-9.91-5.7c-1.72-1.7-2.85-2.34-3.4-4h10.25a2.23,2.23,0,0,0,1.52-.54,1.72,1.72,0,0,0,.65-1.4V37.16a1.76,1.76,0,0,0-.65-1.37,2.22,2.22,0,0,0-1.52-.58H271.65a2.24,2.24,0,0,0-1.52.55,1.72,1.72,0,0,0-.65,1.4v2.12a1.77,1.77,0,0,0,.65,1.37,2.21,2.21,0,0,0,1.52.57H282c-.55,1.76-1.69,2.41-3.44,4.11A25.4,25.4,0,0,1,268.59,51a1.8,1.8,0,0,0-1.32,1c-.17.48,1.67,3.05,1.67,3.05A3,3,0,0,0,270,55.6Z"/><path class="cls-2" d="M380.47,53.24H408a2.07,2.07,0,0,0,1.84-.84,3.61,3.61,0,0,0,.57-2.06,3.47,3.47,0,0,0-.57-2A2.05,2.05,0,0,0,408,47.5H384.14a1.11,1.11,0,0,1-1.26-1.26V42.35a1.11,1.11,0,0,1,1.26-1.26h23.31a2.05,2.05,0,0,0,1.84-.85,3.58,3.58,0,0,0,.57-2.05,3.47,3.47,0,0,0-.57-2,2.05,2.05,0,0,0-1.84-.85h-27a5.25,5.25,0,0,0-3.64,1,5,5,0,0,0-1,3.56V48.7c0,1.72.34,2.9,1,3.56S378.72,53.24,380.47,53.24Z"/><path class="cls-2" d="M405.59,68.54a19.22,19.22,0,0,0-5.44-1.75,45.89,45.89,0,0,0-14.42,0,19.18,19.18,0,0,0-5.42,1.75,8.8,8.8,0,0,0-3.42,3,8.63,8.63,0,0,0,0,8.71,8.8,8.8,0,0,0,3.42,3A19.18,19.18,0,0,0,385.73,85a45.89,45.89,0,0,0,14.42,0,19.22,19.22,0,0,0,5.44-1.75,8.9,8.9,0,0,0,3.43-3,8.69,8.69,0,0,0,0-8.71A8.9,8.9,0,0,0,405.59,68.54ZM400.86,79c-1.59.73-4.22,1.09-7.91,1.09S386.63,79.7,385,79s-2.38-1.75-2.38-3.06.79-2.34,2.38-3.07,4.22-1.1,7.91-1.1,6.32.37,7.91,1.1,2.38,1.75,2.38,3.07S402.45,78.24,400.86,79Z"/><path class="cls-2" d="M414.18,57.68H371.93a4.66,4.66,0,0,0-2.33.58,1.74,1.74,0,0,0-.69,1.37v2.18a1.7,1.7,0,0,0,.69,1.4,5,5,0,0,0,2.33.55h42.25a3,3,0,0,0,0-6.08Z"/><path class="cls-2" d="M320.62,44a2.5,2.5,0,0,0,1.49.44h26.34l-.06,0a1.12,1.12,0,0,1,1.23.87,2.54,2.54,0,0,0,0,.39v.13c0,.11,0,.22,0,.34,0,1.51,0,2.86.05,4.09-.05,2.06-.15,1.56-.32,3.61a55.06,55.06,0,0,1-1.07,6.81,2.87,2.87,0,0,0,.53,2.53,4,4,0,0,0,2.12,1.2,4.53,4.53,0,0,0,2.85-.3,3,3,0,0,0,1.62-2.23,50.73,50.73,0,0,0,1.15-7,67.22,67.22,0,0,0,.37-7.67V43.05c.05-1.1.09-2.19.09-3.27,0,0,0-.05,0-.08s0-.26,0-.39a1.41,1.41,0,0,0-.63-1.12,2.45,2.45,0,0,0-1.49-.47H322.13a2.48,2.48,0,0,0-1.5.47,1.38,1.38,0,0,0-.63,1.12v3.57A1.35,1.35,0,0,0,320.62,44Z"/><path class="cls-2" d="M361.58,69.71H340.19V56.05a3.85,3.85,0,1,0-7.69,0s0,0,0,.06,0,0,0,.06V69.71H315.77c.42,0-.77.2-1.21.58a1.75,1.75,0,0,0-.67,1.37v2.18a1.71,1.71,0,0,0,.67,1.4c.44.36,1.63.55,1.21.55h45.81a3,3,0,0,0,0-6.08Z"/></svg>